<svg version="1.1" id="Layer_1" xmlns="http://www.w3.org/2000/svg" xmlns:xlink="http://www.w3.org/1999/xlink" x="0px" y="0px"
	 width="100%" viewBox="0 0 281 259" enable-background="new 0 0 281 259" xml:space="preserve">
<path fill="#F7F6F5" opacity="1.000000" stroke="none" 
	d="
M164.000000,260.000000 
	C109.333344,260.000000 55.166679,260.000000 1.000015,260.000000 
	C1.000010,173.666687 1.000010,87.333366 1.000005,1.000038 
	C94.666634,1.000025 188.333267,1.000025 281.999939,1.000013 
	C281.999939,87.333290 281.999939,173.666580 281.999969,259.999939 
	C242.833328,260.000000 203.666672,260.000000 164.000000,260.000000 
M97.461655,142.817078 
	C97.767159,142.624557 97.921432,142.347763 98.490723,141.729324 
	C99.247704,140.766754 100.004692,139.804199 101.477875,138.860031 
	C101.932755,138.159073 102.387634,137.458115 103.022377,136.211426 
	C103.596848,135.747482 104.171326,135.283524 105.482590,135.007889 
	C106.054771,135.750381 106.626961,136.492874 106.900902,137.876221 
	C106.573158,139.247238 106.245415,140.618271 105.621017,142.179031 
	C105.567505,142.282486 105.442184,142.426132 105.473503,142.482086 
	C105.581711,142.675385 105.744514,142.838120 105.941498,143.863251 
	C105.991066,145.568176 106.040634,147.273087 105.635117,149.283813 
	C105.995026,149.884155 106.354935,150.484497 106.869202,151.710327 
	C106.912735,152.137238 106.956268,152.564148 106.510544,153.401184 
	C107.000404,154.271484 107.490265,155.141785 108.113510,156.644836 
	C108.201042,157.285263 108.288574,157.925690 108.225311,159.289261 
	C108.866402,159.830231 109.507492,160.371201 110.571617,161.250671 
	C110.774742,161.744217 110.977867,162.237778 111.144554,163.443253 
	C111.819176,163.928238 112.493805,164.413223 113.784966,165.074722 
	C115.186089,166.054474 116.587204,167.034225 118.054741,168.591324 
	C118.705101,168.721298 119.355469,168.851273 120.740623,169.005264 
	C121.468864,169.098557 122.197113,169.191849 123.205330,169.986359 
	C126.445885,170.339554 129.686432,170.692764 133.367233,171.268372 
	C133.644730,171.461746 133.851059,171.713455 134.099716,172.688980 
	C135.724762,174.562637 136.616974,174.167694 136.903351,171.063477 
	C136.903946,170.732727 137.041504,170.303940 136.885178,170.085480 
	C132.507843,163.968201 128.988251,157.575485 129.703369,149.643616 
	C129.742889,149.205246 128.446518,148.147964 128.116562,148.274841 
	C127.345573,148.571335 126.271301,149.378799 126.226547,150.040634 
	C126.026169,153.003555 126.143311,155.987961 125.590424,159.379181 
	C125.514618,160.743027 125.438812,162.106857 125.367691,163.386307 
	C124.213745,163.951035 123.098183,164.496979 121.284111,165.003235 
	C119.495033,163.715729 117.705956,162.428223 115.913094,160.420944 
	C114.927322,159.287918 113.941551,158.154907 112.482765,156.508926 
	C112.215172,155.135895 111.947586,153.762848 111.858337,151.646133 
	C111.290543,150.747208 110.722748,149.848267 110.046783,148.309128 
	C110.016403,147.877625 109.986015,147.446136 110.498772,146.560455 
	C110.356804,145.042999 110.214828,143.525558 110.125183,141.322128 
	C111.422295,139.909607 112.719406,138.497070 114.552231,137.602570 
	C117.316071,137.222366 120.079903,136.842178 123.770485,136.334503 
	C120.167725,130.448853 115.889069,132.476807 112.266586,132.071777 
	C111.146233,131.946533 110.079262,131.343933 109.499214,130.709671 
	C109.929253,130.116760 110.359291,129.523865 111.377357,128.739792 
	C111.908539,128.130829 112.439720,127.521866 113.780594,126.947052 
	C116.878250,127.481384 119.975899,128.015732 123.702789,128.822693 
	C124.376793,128.941010 125.050797,129.059326 126.017693,129.791214 
	C128.254807,131.850571 130.439484,133.972244 132.763382,135.928497 
	C133.398880,136.463455 134.948929,136.962921 135.214890,136.676361 
	C135.851639,135.990326 136.506454,134.589539 136.199936,133.903717 
	C135.436523,132.195663 134.272446,130.609802 133.023804,129.190857 
	C131.661926,127.643242 130.023727,126.338783 128.702530,124.322632 
	C128.668488,123.902397 128.634430,123.482162 128.805984,122.205185 
	C128.747162,120.451004 128.688339,118.696831 128.804886,116.292740 
	C128.811798,115.845284 128.818710,115.397835 129.372803,114.529610 
	C130.193451,112.353645 131.014099,110.177681 132.062363,107.387497 
	C132.173386,106.965500 132.284409,106.543495 133.080170,106.118561 
	C140.856888,100.779884 148.215698,81.745888 146.604065,72.058296 
	C146.604065,72.058296 146.990189,71.949516 147.833664,71.968857 
	C160.490860,71.550537 175.699615,59.662006 177.259399,44.688820 
	C177.911880,38.425194 177.429489,37.299709 171.292221,38.313168 
	C166.780624,39.058174 162.405121,40.627419 158.450531,41.698883 
	C155.307266,36.983616 152.332947,32.289757 149.116409,27.768219 
	C146.423248,23.982414 143.581116,24.745783 141.139481,28.128389 
	C138.626617,31.609684 136.119354,35.111805 133.893784,38.777336 
	C132.591827,40.921665 131.647125,41.173649 129.173584,40.201740 
	C124.913010,38.527653 120.334251,37.569096 115.810699,36.735069 
	C114.863571,36.560448 112.525612,38.378757 112.618553,39.018749 
	C113.201393,43.032265 114.291046,46.972183 115.138863,51.656952 
	C116.067703,53.164192 116.996544,54.671429 118.149124,56.748238 
	C119.009735,57.859020 119.870346,58.969807 121.007927,60.595417 
	C121.307007,60.841366 121.606087,61.087315 122.216896,61.861103 
	C123.434158,62.922310 124.651421,63.983517 126.114685,65.685562 
	C130.107208,67.365540 134.099716,69.045509 138.511002,70.895378 
	C138.511002,70.895378 138.962296,70.871796 139.653259,71.267700 
	C140.504639,72.654877 142.117416,74.075706 142.057877,75.422630 
	C141.907669,78.821281 141.642502,82.475014 140.272507,85.506409 
	C137.252228,92.189461 133.522675,98.551964 129.513641,105.375847 
	C127.651230,107.539864 125.788811,109.703880 123.287781,112.023529 
	C122.137604,113.319984 120.987419,114.616440 119.413750,116.161469 
	C119.153938,116.371796 118.951927,116.627754 118.314941,117.124977 
	C117.840279,117.638115 117.365616,118.151245 116.276527,118.953926 
	C114.143196,120.958763 112.009857,122.963608 109.261528,125.217262 
	C103.886780,130.840836 98.067261,136.110214 93.241074,142.170639 
	C85.922165,151.361237 84.826241,161.560043 89.855370,172.496460 
	C96.638176,187.246490 107.377235,198.622070 119.845200,208.521210 
	C123.081032,211.090378 124.328041,213.027054 121.447113,216.633636 
	C120.536987,217.773026 120.904808,219.933212 120.687759,221.626221 
	C122.102455,220.851334 124.156700,220.428894 124.813766,219.236511 
	C126.913986,215.425247 129.267136,214.264175 132.995377,217.045288 
	C133.758163,217.614288 134.836197,217.760666 136.015182,218.664536 
	C136.680893,218.998383 137.346603,219.332230 138.578735,220.106522 
	C140.935806,221.123474 143.292862,222.140411 145.965622,223.687622 
	C146.647629,223.988190 147.329636,224.288773 148.700378,224.874603 
	C151.008102,225.638580 153.315842,226.402557 155.971970,227.766678 
	C158.304916,228.488739 160.637848,229.210800 163.519104,230.088699 
	C163.897247,230.110886 164.275375,230.133072 164.986618,230.767120 
	C166.259247,231.649551 167.531891,232.531982 169.475342,233.879547 
	C167.624039,234.414001 166.564117,235.011795 165.527893,234.973175 
	C156.899307,234.651581 148.103424,235.163223 139.679749,233.641998 
	C106.141663,227.585327 80.195763,210.047852 62.608784,180.605179 
	C60.734245,177.466980 59.138592,174.158981 57.192345,171.069107 
	C56.707577,170.299484 55.360676,170.072891 54.410042,169.596710 
	C54.099548,170.602219 53.454536,171.644791 53.560867,172.604095 
	C53.702709,173.883804 54.223068,175.233536 54.936161,176.319992 
	C60.121349,184.220230 64.633667,192.722946 70.776718,199.805222 
	C94.804459,227.506683 125.637177,240.526260 162.167892,239.595642 
	C169.458160,239.409943 176.695160,237.133362 184.773575,235.909668 
	C205.073959,231.701981 222.031708,221.374176 236.836807,207.232483 
	C237.857971,206.257095 237.818115,204.170914 238.271698,202.601303 
	C236.712952,203.097855 234.926559,203.260727 233.631668,204.144058 
	C223.801575,210.849899 214.437607,218.328995 204.198700,224.320084 
	C194.161057,230.193359 183.173996,233.594315 171.370026,228.520905 
	C169.761368,227.829514 167.769638,228.029343 165.703247,227.716644 
	C165.703247,227.716644 165.447006,227.805161 165.074036,227.212204 
	C163.381180,226.634232 161.688309,226.056244 159.349915,225.199844 
	C158.658386,225.092133 157.966858,224.984421 157.000305,224.329681 
	C156.329697,224.034760 155.659103,223.739822 154.352753,223.173859 
	C153.671494,223.069183 152.990250,222.964523 152.000443,222.269745 
	C150.664505,221.683563 149.328583,221.097382 147.322876,220.147766 
	C142.581543,217.752243 137.840210,215.356720 132.962845,212.284103 
	C132.484528,211.542419 132.006210,210.800720 131.884903,209.445694 
	C133.922180,207.272736 135.959457,205.099777 138.605698,202.838181 
	C139.089462,202.233292 139.573212,201.628403 140.596359,200.793762 
	C141.062485,200.438202 141.528595,200.082642 142.599548,199.745743 
	C143.141098,199.196182 143.682632,198.646622 144.832962,197.831573 
	C146.553268,196.779968 148.273560,195.728348 150.594086,194.726120 
	C151.093765,194.163757 151.593460,193.601395 152.565674,192.925476 
	C152.565674,192.925476 152.993546,192.694992 153.591705,192.708878 
	C154.109680,192.158798 154.627670,191.608734 155.800613,190.954453 
	C156.201691,190.771896 156.602783,190.589340 157.619339,190.601852 
	C158.727264,190.023376 159.835205,189.444916 161.695297,188.883789 
	C163.433289,188.654510 165.171295,188.425232 167.521072,188.617279 
	C169.011078,188.593811 170.501083,188.570343 172.821487,188.776215 
	C174.252548,188.766556 175.683594,188.756882 177.639709,189.317719 
	C180.092072,189.334579 182.553894,189.496140 184.994720,189.336624 
	C189.386673,189.049637 192.160019,186.502426 192.746307,182.275375 
	C193.172150,179.205109 192.518860,176.001144 192.649353,172.869415 
	C192.780899,169.712997 193.227859,166.564468 193.641724,163.426346 
	C194.205276,159.153076 196.777924,153.768387 195.072403,150.872513 
	C191.978500,145.619217 193.157990,143.238113 197.439957,140.497421 
	C198.187607,140.018890 198.493179,138.849640 199.148788,137.704269 
	C199.148788,137.704269 199.162857,137.375366 199.748901,137.021286 
	C199.565018,135.524994 199.381134,134.028702 198.832321,131.991455 
	C197.955185,130.793915 197.259506,129.390823 196.172394,128.431137 
	C186.894913,120.241066 182.526840,109.428925 180.048294,97.756104 
	C177.152679,84.119095 168.758575,76.223671 155.205734,75.359489 
	C153.976151,75.281082 152.652542,76.677185 151.372604,77.388542 
	C152.428085,78.189995 153.386749,79.490883 154.553726,79.717064 
	C169.216156,82.558891 173.133591,86.803200 176.438019,101.495918 
	C178.596741,111.094498 182.443558,120.070854 189.578979,127.367767 
	C192.060852,129.905823 196.082291,131.597000 195.165344,136.381622 
	C191.630402,138.190872 188.069763,139.952652 184.578049,141.841782 
	C183.672424,142.331757 182.982407,143.220245 182.193359,143.925690 
	C183.055756,144.794296 183.808716,145.834579 184.815628,146.476517 
	C185.603989,146.979095 187.123596,146.671768 187.585846,147.280502 
	C188.636948,148.664673 190.221130,150.794830 189.776596,151.878311 
	C189.195770,153.293991 186.815842,153.924194 185.303268,155.021072 
	C184.241196,155.791245 183.334915,156.776276 182.359055,157.665359 
	C183.648758,158.203720 184.898178,158.916061 186.240570,159.226791 
	C187.367538,159.487671 188.602859,159.280411 188.649460,159.280411 
	C188.411530,164.471252 187.216003,169.250916 188.216934,173.514969 
	C189.879501,180.597702 188.890121,183.697861 181.208847,185.814087 
	C179.921722,185.826706 178.634583,185.839325 176.992401,185.253006 
	C175.320084,185.151367 173.647781,185.049728 171.057968,184.859818 
	C166.822510,184.856857 162.587036,184.853897 157.926895,184.228745 
	C155.954926,183.974823 153.982956,183.720886 151.279068,183.233124 
	C148.077637,180.695724 144.876221,178.158310 141.389084,175.394455 
	C141.036575,176.358109 140.194458,177.616043 140.492279,178.008118 
	C143.367493,181.793350 146.434357,185.432999 149.632431,189.341583 
	C142.467392,194.961533 134.607178,201.126740 126.402374,207.562210 
	C113.550095,198.858337 102.850807,187.318649 94.886993,173.159653 
	C89.709229,163.954025 89.391319,154.934341 95.587135,145.662933 
	C96.041367,144.768158 96.495598,143.873367 96.990402,143.007645 
	C96.990402,143.007645 96.989029,142.957779 97.461655,142.817078 
M233.448853,115.497398 
	C233.652420,115.998993 233.856003,116.500587 234.058731,117.683594 
	C234.347733,118.778114 234.636749,119.872635 234.563110,121.419228 
	C234.794724,122.240509 235.026337,123.061790 235.139771,124.741295 
	C235.283157,126.178459 235.426544,127.615631 235.331848,129.949509 
	C234.655365,140.969193 233.978882,151.988892 233.035049,163.689896 
	C232.934174,164.409088 232.833282,165.128296 232.130127,166.200699 
	C230.700378,170.797409 229.270630,175.394119 227.749344,180.289429 
	C227.749344,180.289429 227.711273,180.600098 227.121567,180.959244 
	C226.400421,182.638092 225.679291,184.316956 224.672745,186.457855 
	C224.438049,186.944595 224.203354,187.431351 223.351608,188.126892 
	C222.699265,189.415222 222.046906,190.703537 220.945831,192.535767 
	C218.443054,197.164581 212.952362,200.265884 213.938965,206.796555 
	C219.108643,203.704163 222.224518,199.059570 224.599442,193.081192 
	C224.809875,192.742188 225.020309,192.403198 225.745224,191.710678 
	C226.211777,190.585388 226.678329,189.460083 227.747406,187.986771 
	C228.498779,186.324661 229.250153,184.662552 230.209106,182.402802 
	C230.548752,181.630844 230.888382,180.858871 231.740540,179.663223 
	C232.112030,178.431732 232.483536,177.200256 233.364334,175.463760 
	C234.523376,171.296753 235.682419,167.129745 237.342209,162.408829 
	C239.852005,153.370316 240.678268,144.209198 239.322632,134.035965 
	C239.236008,132.033661 239.149384,130.031342 239.452469,127.515396 
	C239.022781,126.210014 238.593094,124.904633 238.234238,122.879234 
	C238.156113,121.919617 238.078003,120.960007 238.347839,119.620232 
	C237.955200,118.939003 237.562561,118.257774 237.285873,117.288277 
	C237.285873,117.288277 237.226013,116.983368 237.374222,116.449944 
	C237.190735,115.653694 237.007248,114.857452 236.894485,113.279312 
	C236.717224,112.522926 236.539963,111.766533 236.507584,110.484642 
	C236.112473,109.950027 235.717361,109.415413 235.260986,108.155678 
	C234.622116,106.400246 233.983231,104.644821 233.250916,102.151611 
	C232.636597,100.716301 232.022263,99.280998 231.280136,97.172523 
	C230.863571,96.117943 230.446991,95.063354 229.874252,93.467743 
	C229.619553,93.194191 229.364838,92.920631 229.073853,91.914558 
	C228.666519,90.659050 228.437729,89.308029 227.824921,88.162422 
	C219.383194,72.381226 207.856430,59.297668 193.146271,49.100266 
	C192.010651,48.313019 190.085571,48.664574 188.527435,48.486824 
	C189.311752,49.918526 189.739838,51.843777 190.934937,52.706390 
	C204.447479,62.459728 215.072037,74.761482 223.420990,89.571709 
	C223.930893,90.085762 224.440781,90.599823 225.201126,91.771049 
	C225.950623,93.511124 226.700119,95.251205 227.378510,97.636772 
	C228.288086,99.426544 229.197678,101.216316 230.133774,103.747070 
	C230.587158,105.162361 231.040543,106.577644 231.331161,108.562195 
	C232.007172,109.449173 232.683182,110.336159 233.301270,111.848038 
	C233.379730,112.886528 233.458191,113.925011 233.448853,115.497398 
M89.176399,87.315231 
	C90.842491,85.958588 92.508575,84.601952 94.842545,83.061020 
	C99.842041,78.665588 101.292213,72.859108 102.700256,66.532784 
	C104.776138,57.205929 102.100800,49.546452 97.230438,42.099354 
	C95.704575,39.766220 93.793465,39.466236 91.990715,41.705826 
	C88.586082,45.935471 85.317108,50.274311 82.254433,54.228619 
	C76.648018,52.861694 70.929382,51.362450 65.158119,50.104683 
	C62.282520,49.477982 60.710426,50.841873 60.934406,53.913055 
	C61.259293,58.367893 61.434193,62.841934 61.982738,67.269424 
	C62.379948,70.475426 62.254208,72.523247 58.230564,73.278305 
	C54.914871,73.900513 51.734726,75.675201 48.713631,77.337410 
	C44.052597,79.901909 43.946262,81.432610 47.981106,85.076492 
	C53.151188,89.745613 59.112556,93.128021 66.120209,93.709724 
	C73.527313,94.324593 81.074593,94.672539 87.687599,88.843658 
	C87.973885,88.402512 88.260162,87.961365 89.176399,87.315231 
M38.209099,118.624855 
	C35.439342,119.757149 32.708363,120.999184 29.890371,121.994972 
	C26.049059,123.352379 25.303553,125.695343 27.698273,128.824371 
	C31.181080,133.375122 34.869678,137.768372 38.345139,142.073471 
	C35.894573,146.522354 33.157177,151.204544 30.716679,156.036713 
	C29.378325,158.686615 30.278679,160.732162 33.497860,160.843903 
	C37.939728,160.998108 42.483727,161.474411 46.820572,160.784912 
	C60.459770,158.616531 71.815910,146.180481 72.826401,132.931854 
	C74.051865,116.864632 65.545052,103.029625 51.675465,98.098816 
	C47.771214,96.710808 45.970314,97.476852 46.014732,101.764359 
	C46.065624,106.676590 46.026527,111.589752 46.026527,116.738571 
	C43.448154,117.327629 41.207890,117.839439 38.209099,118.624855 
M164.589859,116.252419 
	C163.623337,116.030228 162.581558,115.478172 161.711060,115.676804 
	C160.804825,115.883583 159.738281,116.667542 159.368896,117.483131 
	C159.135254,117.999016 159.864059,119.528206 160.478210,119.758888 
	C165.183502,121.526237 170.020645,122.949196 174.837799,120.271545 
	C175.724091,119.778900 176.065887,118.306671 176.658997,117.286598 
	C175.654999,116.915329 174.659073,116.256630 173.645432,116.228096 
	C170.892990,116.150597 168.133026,116.340111 164.589859,116.252419 
M168.273911,98.133751 
	C165.087006,99.259094 161.827850,100.227623 158.771332,101.635925 
	C158.123627,101.934349 158.216034,103.839043 157.967438,105.003670 
	C159.027771,105.108772 160.161194,105.506195 161.134430,105.262901 
	C163.807983,104.594551 166.444183,103.738342 169.031860,102.784698 
	C170.002563,102.426979 170.798660,101.595467 171.674377,100.979958 
	C170.809067,100.038811 169.943756,99.097672 168.273911,98.133751 
z"/>
<path fill="#EC9B92" opacity="1.000000" stroke="none" 
	d="
M104.745796,134.819580 
	C104.171326,135.283524 103.596848,135.747482 102.638588,136.587372 
	C101.757088,137.589417 101.259384,138.215530 100.761673,138.841629 
	C100.004692,139.804199 99.247704,140.766754 98.008514,141.973785 
	C97.278740,142.414993 97.099648,142.661499 96.989029,142.957779 
	C96.989029,142.957779 96.990402,143.007645 96.642563,143.053284 
	C95.858994,144.016510 95.423248,144.934082 94.987503,145.851669 
	C89.391319,154.934341 89.709229,163.954025 94.886993,173.159653 
	C102.850807,187.318649 113.550095,198.858337 126.402374,207.562210 
	C134.607178,201.126740 142.467392,194.961533 149.632431,189.341583 
	C146.434357,185.432999 143.367493,181.793350 140.492279,178.008118 
	C140.194458,177.616043 141.036575,176.358109 141.389084,175.394455 
	C144.876221,178.158310 148.077637,180.695724 151.777802,183.673172 
	C154.301544,184.359131 156.326569,184.605042 158.351578,184.850952 
	C162.587036,184.853897 166.822510,184.856857 171.784775,185.194855 
	C174.123535,185.637238 175.735504,185.744598 177.347458,185.851944 
	C178.634583,185.839325 179.921722,185.826706 181.543915,186.201416 
	C180.290878,187.308228 178.702774,188.027725 177.114655,188.747223 
	C175.683594,188.756882 174.252548,188.766556 172.296631,188.359131 
	C170.150940,188.026672 168.530106,188.111298 166.909286,188.195938 
	C165.171295,188.425232 163.433289,188.654510 161.125610,188.667267 
	C159.371918,189.102737 158.187897,189.754761 157.003876,190.406784 
	C156.602783,190.589340 156.201691,190.771896 155.159851,191.015823 
	C154.010574,191.616455 153.502060,192.155731 152.993546,192.694992 
	C152.993546,192.694992 152.565674,192.925476 152.022980,192.998566 
	C150.984802,193.606689 150.489334,194.141708 149.993866,194.676727 
	C148.273560,195.728348 146.553268,196.779968 144.203979,197.959869 
	C143.048218,198.634460 142.521469,199.180771 141.994720,199.727081 
	C141.528595,200.082642 141.062485,200.438202 140.006439,200.939117 
	C138.943253,201.698578 138.470001,202.312683 137.996735,202.926804 
	C135.959457,205.099777 133.922180,207.272736 131.442963,209.816025 
	C131.700302,211.111298 132.399582,212.036240 133.098877,212.961182 
	C137.840210,215.356720 142.581543,217.752243 147.756012,220.615845 
	C149.562439,221.675903 150.935715,222.267868 152.308990,222.859848 
	C152.990250,222.964523 153.671494,223.069183 154.759338,223.590225 
	C155.869064,224.296631 156.572189,224.586670 157.275330,224.876709 
	C157.966858,224.984421 158.658386,225.092133 159.779755,225.635254 
	C161.955399,226.648819 163.701202,227.226990 165.447006,227.805145 
	C165.447006,227.805161 165.703247,227.716644 165.991150,228.049042 
	C167.180939,229.250793 168.082840,230.120178 168.619370,230.950500 
	C167.053848,230.659363 165.853683,230.407303 164.653519,230.155243 
	C164.275375,230.133072 163.897247,230.110886 163.017197,229.754395 
	C160.218048,228.668900 157.920807,227.917725 155.623566,227.166550 
	C153.315842,226.402557 151.008102,225.638580 148.265991,224.441528 
	C147.104355,223.724777 146.377136,223.441071 145.649918,223.157349 
	C143.292862,222.140411 140.935806,221.123474 138.217697,219.593964 
	C137.160736,218.754898 136.464828,218.428375 135.768921,218.101837 
	C134.836197,217.760666 133.758163,217.614288 132.995377,217.045288 
	C129.267136,214.264175 126.913986,215.425247 124.813766,219.236511 
	C124.156700,220.428894 122.102455,220.851334 120.687759,221.626221 
	C120.904808,219.933212 120.536987,217.773026 121.447113,216.633636 
	C124.328041,213.027054 123.081032,211.090378 119.845200,208.521210 
	C107.377235,198.622070 96.638176,187.246490 89.855370,172.496460 
	C84.826241,161.560043 85.922165,151.361237 93.241074,142.170639 
	C98.067261,136.110214 103.886780,130.840836 109.961548,125.099236 
	C111.443085,124.991997 112.224617,125.002792 113.002159,125.330444 
	C112.989082,126.069168 112.979988,126.491035 112.970901,126.912903 
	C112.439720,127.521866 111.908539,128.130829 110.763969,128.861816 
	C109.430588,129.592575 108.710602,130.201294 107.729630,131.013855 
	C106.561028,132.418304 105.653412,133.618942 104.745796,134.819580 
z"/>
<path fill="#ED9E95" opacity="1.000000" stroke="none" 
	d="
M38.588364,118.488052 
	C41.207890,117.839439 43.448154,117.327629 46.026527,116.738571 
	C46.026527,111.589752 46.065624,106.676590 46.014732,101.764359 
	C45.970314,97.476852 47.771214,96.710808 51.675465,98.098816 
	C65.545052,103.029625 74.051865,116.864632 72.826401,132.931854 
	C71.815910,146.180481 60.459770,158.616531 46.820572,160.784912 
	C42.483727,161.474411 37.939728,160.998108 33.497860,160.843903 
	C30.278679,160.732162 29.378325,158.686615 30.716679,156.036713 
	C33.157177,151.204544 35.894573,146.522354 38.345139,142.073471 
	C34.869678,137.768372 31.181080,133.375122 27.698273,128.824371 
	C25.303553,125.695343 26.049059,123.352379 29.890371,121.994972 
	C32.708363,120.999184 35.439342,119.757149 38.588364,118.488052 
M56.502003,131.717484 
	C55.019974,130.170212 53.024174,128.866882 52.152027,127.030037 
	C49.511162,121.468048 45.303253,120.785820 40.239674,122.724480 
	C37.420567,123.803825 34.820869,125.456230 32.122288,126.850372 
	C34.014969,129.428665 35.608398,132.322845 37.893196,134.487198 
	C39.786198,136.280396 42.782646,138.641678 44.783241,138.238098 
	C49.358650,137.315094 53.623775,134.853973 58.557022,133.465668 
	C60.376808,134.824860 62.196594,136.184052 63.156803,137.774658 
	C48.613811,138.542435 38.081013,145.636551 35.534115,156.668564 
	C44.601257,158.231354 52.668755,156.392685 59.428684,150.067261 
	C62.911125,146.808655 66.928909,143.668350 66.796997,138.052719 
	C67.992767,137.759659 69.188538,137.466599 70.384315,137.173553 
	C69.931252,135.783325 69.478188,134.393082 68.963242,132.097061 
	C69.649139,122.169724 66.704086,113.609550 58.799122,107.341248 
	C56.415169,105.450874 53.127148,104.700607 50.253258,103.428085 
	C50.115391,106.603539 49.570255,109.824547 49.919376,112.945526 
	C50.810047,120.907570 56.589615,126.052605 60.556370,131.875107 
	C59.416191,131.906891 58.276009,131.938675 56.502003,131.717484 
z"/>
<path fill="#EC9C92" opacity="1.000000" stroke="none" 
	d="
M87.229774,89.121078 
	C81.074593,94.672539 73.527313,94.324593 66.120209,93.709724 
	C59.112556,93.128021 53.151188,89.745613 47.981106,85.076492 
	C43.946262,81.432610 44.052597,79.901909 48.713631,77.337410 
	C51.734726,75.675201 54.914871,73.900513 58.230564,73.278305 
	C62.254208,72.523247 62.379948,70.475426 61.982738,67.269424 
	C61.434193,62.841934 61.259293,58.367893 60.934406,53.913055 
	C60.710426,50.841873 62.282520,49.477982 65.158119,50.104683 
	C70.929382,51.362450 76.648018,52.861694 82.254433,54.228619 
	C85.317108,50.274311 88.586082,45.935471 91.990715,41.705826 
	C93.793465,39.466236 95.704575,39.766220 97.230438,42.099354 
	C102.100800,49.546452 104.776138,57.205929 102.700256,66.532784 
	C101.292213,72.859108 99.842041,78.665588 94.349213,82.822006 
	C93.547256,81.924294 93.238640,81.265602 93.106339,80.340981 
	C97.979134,73.188263 100.572464,65.703491 99.837120,56.890888 
	C99.568901,55.696957 99.235016,54.865738 98.676445,53.768776 
	C97.278694,50.929817 96.105629,48.356602 94.932556,45.783386 
	C94.347740,45.641750 93.762932,45.500118 93.178116,45.358486 
	C92.487907,46.465565 91.864799,47.621712 91.096855,48.671959 
	C84.958427,57.067039 83.951790,66.233673 86.546051,76.017487 
	C84.798470,77.300186 83.418350,78.579422 81.671532,79.841003 
	C73.067467,75.468178 64.561234,74.524704 55.853027,78.164635 
	C54.337734,78.798019 53.219597,80.381546 51.918022,81.526230 
	C52.980438,82.728462 53.867996,84.169899 55.133194,85.094711 
	C64.460999,91.913017 74.471085,90.866905 84.863678,87.779922 
	C85.797539,88.451614 86.513657,88.786346 87.229774,89.121078 
M81.306801,60.742390 
	C77.111725,56.159801 71.485023,55.150352 64.422569,53.912098 
	C65.096092,59.217739 65.443733,63.883305 66.406738,68.418198 
	C66.712677,69.858894 68.444977,71.607849 69.893127,72.076241 
	C73.704659,73.309021 77.718658,73.915810 81.699165,74.782188 
	C81.699165,70.001755 81.699165,65.738503 81.306801,60.742390 
z"/>
<path fill="#ED9C93" opacity="1.000000" stroke="none" 
	d="
M115.213020,50.936451 
	C114.291046,46.972183 113.201393,43.032265 112.618553,39.018749 
	C112.525612,38.378757 114.863571,36.560448 115.810699,36.735069 
	C120.334251,37.569096 124.913010,38.527653 129.173584,40.201740 
	C131.647125,41.173649 132.591827,40.921665 133.893784,38.777336 
	C136.119354,35.111805 138.626617,31.609684 141.139481,28.128389 
	C143.581116,24.745783 146.423248,23.982414 149.116409,27.768219 
	C152.332947,32.289757 155.307266,36.983616 158.450531,41.698883 
	C162.405121,40.627419 166.780624,39.058174 171.292221,38.313168 
	C177.429489,37.299709 177.911880,38.425194 177.259399,44.688820 
	C175.699615,59.662006 160.490860,71.550537 147.417999,71.561783 
	C147.009720,70.093193 147.017090,69.031685 147.411652,67.939507 
	C162.748337,64.833565 173.954407,53.696854 172.448593,43.411701 
	C161.226166,41.515625 149.189041,52.505409 146.217590,67.040718 
	C144.908813,68.361328 143.950119,69.681961 142.717560,70.867134 
	C142.308105,69.534676 142.172516,68.337692 142.040375,66.714050 
	C142.222290,54.271500 127.658371,39.335983 116.999893,41.766460 
	C117.112167,43.951260 117.229050,46.225803 117.247353,48.845512 
	C116.503517,49.772602 115.858269,50.354527 115.213020,50.936451 
M152.771393,40.831676 
	C152.547592,40.388180 152.381042,39.902573 152.090820,39.507931 
	C149.983261,36.642166 147.850784,33.794731 145.726181,30.941504 
	C143.147446,33.792389 140.312531,36.460728 138.096786,39.570259 
	C136.968964,41.153000 135.904510,44.099651 136.632843,45.440094 
	C138.857574,49.534622 141.965820,53.149101 144.792633,57.036060 
	C147.334259,53.693565 149.884277,50.853046 151.785004,47.629665 
	C152.774323,45.951885 152.618164,43.598652 152.771393,40.831676 
M143.448364,62.662853 
	C147.593582,64.258446 145.790405,60.950321 146.485016,59.701317 
	C145.982986,59.378147 145.480957,59.054977 144.978928,58.731812 
	C144.373184,59.823032 143.767441,60.914257 143.448364,62.662853 
z"/>
<path fill="#EEA39A" opacity="1.000000" stroke="none" 
	d="
M164.820068,230.461182 
	C165.853683,230.407303 167.053848,230.659363 168.939789,231.091949 
	C170.745514,231.515259 171.865479,231.758041 173.302094,232.162170 
	C175.997665,237.446609 180.100922,235.805939 183.993256,235.182861 
	C183.987473,235.395859 183.956711,235.820892 183.956711,235.820892 
	C176.695160,237.133362 169.458160,239.409943 162.167892,239.595642 
	C125.637177,240.526260 94.804459,227.506683 70.776718,199.805222 
	C64.633667,192.722946 60.121349,184.220230 54.936161,176.319992 
	C54.223068,175.233536 53.702709,173.883804 53.560867,172.604095 
	C53.454536,171.644791 54.099548,170.602219 54.410042,169.596710 
	C55.360676,170.072891 56.707577,170.299484 57.192345,171.069107 
	C59.138592,174.158981 60.734245,177.466980 62.608784,180.605179 
	C80.195763,210.047852 106.141663,227.585327 139.679749,233.641998 
	C148.103424,235.163223 156.899307,234.651581 165.527893,234.973175 
	C166.564117,235.011795 167.624039,234.414001 169.475342,233.879547 
	C167.531891,232.531982 166.259247,231.649551 164.820068,230.461182 
z"/>
<path fill="#EEA198" opacity="1.000000" stroke="none" 
	d="
M177.377182,189.032471 
	C178.702774,188.027725 180.290878,187.308228 181.929474,186.230042 
	C188.890121,183.697861 189.879501,180.597702 188.216934,173.514969 
	C187.216003,169.250916 188.411530,164.471252 188.649460,159.280411 
	C188.602859,159.280411 187.367538,159.487671 186.240570,159.226791 
	C184.898178,158.916061 183.648758,158.203720 182.359055,157.665359 
	C183.334915,156.776276 184.241196,155.791245 185.303268,155.021072 
	C186.815842,153.924194 189.195770,153.293991 189.776596,151.878311 
	C190.221130,150.794830 188.636948,148.664673 187.585846,147.280502 
	C187.123596,146.671768 185.603989,146.979095 184.815628,146.476517 
	C183.808716,145.834579 183.055756,144.794296 182.193359,143.925690 
	C182.982407,143.220245 183.672424,142.331757 184.578049,141.841782 
	C188.069763,139.952652 191.630402,138.190872 195.763123,136.345947 
	C197.241577,136.873322 198.122253,137.436356 199.002914,137.999390 
	C198.493179,138.849640 198.187607,140.018890 197.439957,140.497421 
	C193.157990,143.238113 191.978500,145.619217 195.072403,150.872513 
	C196.777924,153.768387 194.205276,159.153076 193.641724,163.426346 
	C193.227859,166.564468 192.780899,169.712997 192.649353,172.869415 
	C192.518860,176.001144 193.172150,179.205109 192.746307,182.275375 
	C192.160019,186.502426 189.386673,189.049637 184.994720,189.336624 
	C182.553894,189.496140 180.092072,189.334579 177.377182,189.032471 
z"/>
<path fill="#EB9B91" opacity="1.000000" stroke="none" 
	d="
M199.075851,137.851837 
	C198.122253,137.436356 197.241577,136.873322 196.126373,136.228699 
	C196.082291,131.597000 192.060852,129.905823 189.578979,127.367767 
	C182.443558,120.070854 178.596741,111.094498 176.438019,101.495918 
	C173.133591,86.803200 169.216156,82.558891 154.553726,79.717064 
	C153.386749,79.490883 152.428085,78.189995 151.372604,77.388542 
	C152.652542,76.677185 153.976151,75.281082 155.205734,75.359489 
	C168.758575,76.223671 177.152679,84.119095 180.048294,97.756104 
	C182.526840,109.428925 186.894913,120.241066 196.172394,128.431137 
	C197.259506,129.390823 197.955185,130.793915 198.957123,132.747589 
	C199.108902,134.794266 199.135880,136.084808 199.162857,137.375366 
	C199.162857,137.375366 199.148788,137.704269 199.075851,137.851837 
z"/>
<path fill="#EDA399" opacity="1.000000" stroke="none" 
	d="
M172.985443,232.000824 
	C171.865479,231.758041 170.745514,231.515259 169.305145,231.131012 
	C168.082840,230.120178 167.180939,229.250793 166.117172,228.098969 
	C167.769638,228.029343 169.761368,227.829514 171.370026,228.520905 
	C183.173996,233.594315 194.161057,230.193359 204.198700,224.320084 
	C214.437607,218.328995 223.801575,210.849899 233.631668,204.144058 
	C234.926559,203.260727 236.712952,203.097855 238.271698,202.601303 
	C237.818115,204.170914 237.857971,206.257095 236.836807,207.232483 
	C222.031708,221.374176 205.073959,231.701981 184.365143,235.865280 
	C183.956711,235.820892 183.987473,235.395859 184.231705,234.967224 
	C180.645767,233.692673 176.815613,232.846756 172.985443,232.000824 
z"/>
<path fill="#EB9D94" opacity="1.000000" stroke="none" 
	d="
M106.999794,152.991058 
	C106.956268,152.564148 106.912735,152.137238 106.854004,151.105804 
	C106.589279,149.993530 106.339745,149.485764 106.090202,148.978012 
	C106.040634,147.273087 105.991066,145.568176 105.958344,143.183167 
	C105.956009,142.331818 105.936844,142.160553 105.917679,141.989288 
	C106.245415,140.618271 106.573158,139.247238 107.344528,137.347748 
	C111.049850,133.193466 115.091064,133.699326 120.757378,134.531738 
	C117.594597,135.729492 115.805557,136.407013 114.016518,137.084534 
	C112.719406,138.497070 111.422295,139.909607 109.834167,141.894272 
	C109.680649,143.982483 109.818146,145.498566 109.955635,147.014633 
	C109.986015,147.446136 110.016403,147.877625 110.051468,148.975037 
	C110.597427,150.557236 111.138718,151.473526 111.680008,152.389816 
	C111.947586,153.762848 112.215172,155.135895 112.754593,157.107605 
	C113.989906,158.851089 114.953392,159.995911 115.916870,161.140732 
	C117.705956,162.428223 119.495033,163.715729 121.913994,165.285843 
	C124.234138,165.647568 125.924400,165.726669 128.654144,165.854431 
	C127.613388,162.995697 126.879608,160.980148 126.145828,158.964600 
	C126.143311,155.987961 126.026169,153.003555 126.226547,150.040634 
	C126.271301,149.378799 127.345573,148.571335 128.116562,148.274841 
	C128.446518,148.147964 129.742889,149.205246 129.703369,149.643616 
	C128.988251,157.575485 132.507843,163.968201 136.885178,170.085480 
	C137.041504,170.303940 136.903946,170.732727 136.529449,171.477173 
	C135.432449,171.935089 134.709335,171.979309 133.986237,172.023529 
	C133.851059,171.713455 133.644730,171.461746 132.983337,170.803101 
	C129.374741,169.986923 126.150047,169.636032 122.925354,169.285126 
	C122.197113,169.191849 121.468864,169.098557 120.199768,168.751694 
	C119.102043,168.336746 118.545181,168.175369 117.988319,168.013977 
	C116.587204,167.034225 115.186089,166.054474 113.396942,164.681274 
	C112.399605,163.768982 111.790298,163.250153 111.180992,162.731323 
	C110.977867,162.237778 110.774742,161.744217 110.303101,160.772705 
	C109.481766,159.718536 108.928932,159.142334 108.376106,158.566116 
	C108.288574,157.925690 108.201042,157.285263 108.059464,155.992996 
	C107.670212,154.557785 107.334999,153.774429 106.999794,152.991058 
z"/>
<path fill="#EB9E93" opacity="1.000000" stroke="none" 
	d="
M223.558762,89.006981 
	C215.072037,74.761482 204.447479,62.459728 190.934937,52.706390 
	C189.739838,51.843777 189.311752,49.918526 188.527435,48.486820 
	C190.085571,48.664574 192.010651,48.313019 193.146271,49.100266 
	C207.856430,59.297668 219.383194,72.381226 227.824921,88.162422 
	C228.437729,89.308029 228.666519,90.659050 229.146881,92.567963 
	C229.490082,93.483833 229.760254,93.746307 230.030426,94.008774 
	C230.446991,95.063354 230.863571,96.117943 230.987854,97.538170 
	C229.613586,97.599632 228.531601,97.295456 227.449615,96.991280 
	C226.700119,95.251205 225.950623,93.511124 225.068802,91.152023 
	C224.477234,90.024323 224.018005,89.515656 223.558762,89.006981 
z"/>
<path fill="#EC9F95" opacity="1.000000" stroke="none" 
	d="
M142.036926,67.140701 
	C142.172516,68.337692 142.308105,69.534676 143.031281,71.007973 
	C144.483673,71.572525 145.348480,71.860771 146.213287,72.149010 
	C148.215698,81.745888 140.856888,100.779884 132.432404,106.014282 
	C131.217270,105.621750 130.649902,105.333504 130.082535,105.045258 
	C133.522675,98.551964 137.252228,92.189461 140.272507,85.506409 
	C141.642502,82.475014 141.907669,78.821281 142.057877,75.422630 
	C142.117416,74.075706 140.504639,72.654877 139.234619,70.940109 
	C138.549942,70.391037 138.308701,70.428688 138.092239,70.725487 
	C134.099716,69.045509 130.107208,67.365540 126.388695,65.356323 
	C130.103516,65.713753 133.544327,66.400414 137.405548,67.072464 
	C139.229630,67.085457 140.633270,67.113083 142.036926,67.140701 
z"/>
<path fill="#EDA297" opacity="1.000000" stroke="none" 
	d="
M233.302383,163.008575 
	C233.978882,151.988892 234.655365,140.969193 235.751465,129.624405 
	C237.229553,131.163162 238.288025,133.027023 239.346481,134.890884 
	C240.678268,144.209198 239.852005,153.370316 236.736572,162.697647 
	C235.188095,162.993835 234.245239,163.001205 233.302383,163.008575 
z"/>
<path fill="#EC8D82" opacity="1.000000" stroke="none" 
	d="
M129.798096,105.210556 
	C130.649902,105.333504 131.217270,105.621750 132.090027,106.015747 
	C132.284409,106.543495 132.173386,106.965500 131.667236,107.854759 
	C130.456619,110.531479 129.641113,112.740929 128.825623,114.950378 
	C128.818710,115.397835 128.811798,115.845284 128.399918,116.740883 
	C128.196762,119.146660 128.398575,121.104294 128.600372,123.061928 
	C128.634430,123.482162 128.668488,123.902397 128.331131,124.724335 
	C127.214752,126.476578 126.469772,127.827118 125.724792,129.177658 
	C125.050797,129.059326 124.376793,128.941010 123.287872,128.401520 
	C122.059975,127.286880 121.246994,126.593414 120.392143,125.864243 
	C122.449669,125.548012 124.070503,125.298897 125.691338,125.049774 
	C124.745308,123.916870 123.624344,122.880241 122.925842,121.611099 
	C122.567841,120.960632 122.965103,119.894485 123.326080,118.852615 
	C123.729546,116.415314 123.827972,114.141602 123.926399,111.867897 
	C125.788811,109.703880 127.651230,107.539864 129.798096,105.210556 
z"/>
<path fill="#EC9E95" opacity="1.000000" stroke="none" 
	d="
M224.125732,193.456345 
	C222.224518,199.059570 219.108643,203.704163 213.938965,206.796555 
	C212.952362,200.265884 218.443054,197.164581 221.463684,192.183960 
	C222.643921,190.527466 223.306274,189.222778 223.968643,187.918091 
	C224.203354,187.431351 224.438049,186.944595 225.167023,186.284058 
	C226.155838,186.851761 226.650360,187.593277 227.144882,188.334793 
	C226.678329,189.460083 226.211777,190.585388 225.195007,192.015701 
	C224.471771,192.699265 224.298752,193.077805 224.125732,193.456345 
z"/>
<path fill="#ECA8A0" opacity="1.000000" stroke="none" 
	d="
M164.982956,116.338097 
	C168.133026,116.340111 170.892990,116.150597 173.645432,116.228096 
	C174.659073,116.256630 175.654999,116.915329 176.658997,117.286591 
	C176.065887,118.306671 175.724091,119.778900 174.837799,120.271545 
	C170.020645,122.949196 165.183502,121.526237 160.478210,119.758888 
	C159.864059,119.528206 159.135254,117.999016 159.368896,117.483131 
	C159.738281,116.667542 160.804825,115.883583 161.711060,115.676804 
	C162.581558,115.478172 163.623337,116.030228 164.982956,116.338097 
z"/>
<path fill="#EDA7A0" opacity="1.000000" stroke="none" 
	d="
M168.676178,98.145142 
	C169.943756,99.097672 170.809067,100.038811 171.674377,100.979950 
	C170.798660,101.595467 170.002563,102.426979 169.031860,102.784698 
	C166.444183,103.738342 163.807983,104.594551 161.134430,105.262901 
	C160.161194,105.506195 159.027771,105.108772 157.967438,105.003662 
	C158.216034,103.839043 158.123627,101.934349 158.771332,101.635925 
	C161.827850,100.227623 165.087006,99.259094 168.676178,98.145142 
z"/>
<path fill="#EFA199" opacity="1.000000" stroke="none" 
	d="
M123.021042,119.016205 
	C122.965103,119.894485 122.567841,120.960632 122.925842,121.611099 
	C123.624344,122.880241 124.745308,123.916870 125.691338,125.049774 
	C124.070503,125.298897 122.449669,125.548012 120.392143,125.864243 
	C121.246994,126.593414 122.059975,127.286880 122.973259,128.265198 
	C119.975899,128.015732 116.878250,127.481384 113.375748,126.929977 
	C112.979988,126.491035 112.989082,126.069168 113.372223,125.318085 
	C114.859177,124.988869 115.972092,124.988869 117.527557,124.988869 
	C117.291252,122.641312 117.091095,120.652840 116.890938,118.664368 
	C117.365616,118.151245 117.840279,117.638115 118.874306,117.155045 
	C120.615479,117.780670 121.797287,118.376228 122.988525,118.983490 
	C122.997963,118.995193 123.021042,119.016205 123.021042,119.016205 
z"/>
<path fill="#ED9C93" opacity="1.000000" stroke="none" 
	d="
M136.985138,67.087082 
	C133.544327,66.400414 130.103516,65.713753 126.265694,65.035904 
	C124.651421,63.983517 123.434158,62.922310 121.974808,61.298798 
	C121.398796,60.517853 121.064880,60.299221 120.730957,60.080589 
	C119.870346,58.969807 119.009735,57.859020 118.060791,56.072876 
	C118.350372,54.254723 118.728294,53.111938 119.349190,52.188854 
	C123.608299,59.412369 129.516846,64.173820 136.985138,67.087082 
z"/>
<path fill="#EE8D82" opacity="1.000000" stroke="none" 
	d="
M82.038239,79.858658 
	C83.418350,78.579422 84.798470,77.300186 86.678047,76.348602 
	C89.217377,77.807396 87.604591,84.284180 92.930023,80.606911 
	C93.238640,81.265602 93.547256,81.924294 94.015274,82.914146 
	C92.508575,84.601952 90.842491,85.958588 88.727142,87.276917 
	C88.277885,87.238609 87.990326,86.990448 87.976204,86.712601 
	C87.698692,85.976509 87.435303,85.518280 87.038177,84.774948 
	C86.202217,83.466736 85.499985,82.443619 84.805016,81.209679 
	C84.540344,81.017822 84.268402,81.036797 83.699921,81.001572 
	C82.948326,80.584465 82.493286,80.221565 82.038239,79.858658 
z"/>
<path fill="#FDE0DA" opacity="1.000000" stroke="none" 
	d="
M114.284370,137.343536 
	C115.805557,136.407013 117.594597,135.729492 120.757378,134.531738 
	C115.091064,133.699326 111.049850,133.193466 107.493652,137.027313 
	C106.626961,136.492874 106.054771,135.750381 105.114197,134.913727 
	C105.653412,133.618942 106.561028,132.418304 107.979057,131.051086 
	C108.655602,130.909607 108.821724,130.934753 108.987846,130.959885 
	C110.079262,131.343933 111.146233,131.946533 112.266586,132.071777 
	C115.889069,132.476807 120.167725,130.448853 123.770485,136.334503 
	C120.079903,136.842178 117.316071,137.222366 114.284370,137.343536 
z"/>
<path fill="#EFA199" opacity="1.000000" stroke="none" 
	d="
M125.871246,129.484436 
	C126.469772,127.827118 127.214752,126.476578 128.232864,125.027176 
	C130.023727,126.338783 131.661926,127.643242 133.023804,129.190857 
	C134.272446,130.609802 135.436523,132.195663 136.199936,133.903717 
	C136.506454,134.589539 135.851639,135.990326 135.214890,136.676361 
	C134.948929,136.962921 133.398880,136.463455 132.763382,135.928497 
	C130.439484,133.972244 128.254807,131.850571 125.871246,129.484436 
z"/>
<path fill="#EB9E93" opacity="1.000000" stroke="none" 
	d="
M239.334564,134.463425 
	C238.288025,133.027023 237.229553,131.163162 235.870514,129.176056 
	C235.426544,127.615631 235.283157,126.178459 235.399521,124.106224 
	C235.414764,122.636490 235.170258,121.801826 234.925751,120.967163 
	C234.636749,119.872635 234.347733,118.778114 234.452484,117.340607 
	C235.639481,116.992874 236.432755,116.988121 237.226013,116.983368 
	C237.226013,116.983368 237.285873,117.288277 237.192474,117.781815 
	C237.399338,118.850372 237.699615,119.425377 237.999893,120.000389 
	C238.078003,120.960007 238.156113,121.919617 238.150894,123.648865 
	C238.399292,125.622002 238.731033,126.825523 239.062775,128.029037 
	C239.149384,130.031342 239.236008,132.033661 239.334564,134.463425 
z"/>
<path fill="#EDA297" opacity="1.000000" stroke="none" 
	d="
M227.840866,179.990829 
	C229.270630,175.394119 230.700378,170.797409 232.735199,166.253815 
	C232.977066,167.844696 232.410843,169.368744 232.305710,170.923950 
	C232.192490,172.598846 229.083160,174.713333 232.855026,175.968765 
	C232.483536,177.200256 232.112030,178.431732 231.060699,179.845703 
	C229.534210,180.015732 228.687531,180.003281 227.840866,179.990829 
z"/>
<path fill="#EC9E95" opacity="1.000000" stroke="none" 
	d="
M233.109680,175.716263 
	C229.083160,174.713333 232.192490,172.598846 232.305710,170.923950 
	C232.410843,169.368744 232.977066,167.844696 233.036346,166.077209 
	C232.833282,165.128296 232.934174,164.409088 233.168716,163.349243 
	C234.245239,163.001205 235.188095,162.993835 236.486206,162.974609 
	C235.682419,167.129745 234.523376,171.296753 233.109680,175.716263 
z"/>
<path fill="#EC8D82" opacity="1.000000" stroke="none" 
	d="
M116.583725,118.809143 
	C117.091095,120.652840 117.291252,122.641312 117.527557,124.988869 
	C115.972092,124.988869 114.859177,124.988869 113.376205,125.001221 
	C112.224617,125.002792 111.443085,124.991997 110.269043,124.974823 
	C112.009857,122.963608 114.143196,120.958763 116.583725,118.809143 
z"/>
<path fill="#EDA297" opacity="1.000000" stroke="none" 
	d="
M227.446136,188.160782 
	C226.650360,187.593277 226.155838,186.851761 225.309738,186.053024 
	C225.679291,184.316956 226.400421,182.638092 227.579941,181.088074 
	C228.692734,181.811401 229.347137,182.405914 230.001541,183.000443 
	C229.250153,184.662552 228.498779,186.324661 227.446136,188.160782 
z"/>
<path fill="#EDA297" opacity="1.000000" stroke="none" 
	d="
M227.414062,97.314026 
	C228.531601,97.295456 229.613586,97.599632 231.051758,97.874756 
	C232.022263,99.280998 232.636597,100.716301 232.889038,102.550797 
	C231.720535,102.968697 230.913895,102.987396 230.107269,103.006088 
	C229.197678,101.216316 228.288086,99.426544 227.414062,97.314026 
z"/>
<path fill="#FDE0DA" opacity="1.000000" stroke="none" 
	d="
M125.868126,159.171890 
	C126.879608,160.980148 127.613388,162.995697 128.654144,165.854431 
	C125.924400,165.726669 124.234138,165.647568 122.263245,165.305695 
	C123.098183,164.496979 124.213745,163.951035 125.367691,163.386307 
	C125.438812,162.106857 125.514618,160.743027 125.868126,159.171890 
z"/>
<path fill="#EB9E93" opacity="1.000000" stroke="none" 
	d="
M230.120514,103.376587 
	C230.913895,102.987396 231.720535,102.968697 232.935760,102.919693 
	C233.983231,104.644821 234.622116,106.400246 234.947159,108.537399 
	C233.586868,108.610390 232.540390,108.301659 231.493927,107.992928 
	C231.040543,106.577644 230.587158,105.162361 230.120514,103.376587 
z"/>
<path fill="#FDE0DA" opacity="1.000000" stroke="none" 
	d="
M123.065338,169.635742 
	C126.150047,169.636032 129.374741,169.986923 132.763214,170.691895 
	C129.686432,170.692764 126.445885,170.339554 123.065338,169.635742 
z"/>
<path fill="#EE897A" opacity="1.000000" stroke="none" 
	d="
M146.408676,72.103653 
	C145.348480,71.860771 144.483673,71.572525 143.305145,71.143440 
	C143.950119,69.681961 144.908813,68.361328 146.364090,67.258240 
	C146.915253,67.640579 146.969849,67.805374 147.024445,67.970177 
	C147.017090,69.031685 147.009720,70.093193 146.996277,71.552109 
	C146.990189,71.949516 146.604065,72.058296 146.408676,72.103653 
z"/>
<path fill="#EC9F95" opacity="1.000000" stroke="none" 
	d="
M119.106216,51.969151 
	C118.728294,53.111938 118.350372,54.254723 117.948921,55.788086 
	C116.996544,54.671429 116.067703,53.164192 115.175941,51.296700 
	C115.858269,50.354527 116.503517,49.772602 117.465179,49.098839 
	C118.223129,49.994381 118.664673,50.981766 119.106216,51.969151 
z"/>
<path fill="#EFA199" opacity="1.000000" stroke="none" 
	d="
M123.607086,111.945709 
	C123.827972,114.141602 123.729546,116.415314 123.326080,118.852615 
	C123.021042,119.016205 122.997963,118.995193 122.979736,118.609009 
	C121.920082,117.452843 120.878654,116.682869 119.837234,115.912895 
	C120.987419,114.616440 122.137604,113.319984 123.607086,111.945709 
z"/>
<path fill="#EEA39A" opacity="1.000000" stroke="none" 
	d="
M155.797760,227.466614 
	C157.920807,227.917725 160.218048,228.668900 162.743042,229.676468 
	C160.637848,229.210800 158.304916,228.488739 155.797760,227.466614 
z"/>
<path fill="#EFA199" opacity="1.000000" stroke="none" 
	d="
M129.099213,114.739990 
	C129.641113,112.740929 130.456619,110.531479 131.553436,108.161873 
	C131.014099,110.177681 130.193451,112.353645 129.099213,114.739990 
z"/>
<path fill="#EDA297" opacity="1.000000" stroke="none" 
	d="
M231.412537,108.277557 
	C232.540390,108.301659 233.586868,108.610390 234.977783,108.899956 
	C235.717361,109.415413 236.112473,109.950027 236.069366,110.752647 
	C234.873825,111.088150 234.116516,111.155640 233.359192,111.223137 
	C232.683182,110.336159 232.007172,109.449173 231.412537,108.277557 
z"/>
<path fill="#EB9E93" opacity="1.000000" stroke="none" 
	d="
M233.330231,111.535583 
	C234.116516,111.155640 234.873825,111.088150 235.996918,111.015396 
	C236.539963,111.766533 236.717224,112.522926 236.591309,113.794815 
	C235.370987,114.528046 234.453812,114.745773 233.536652,114.963501 
	C233.458191,113.925011 233.379730,112.886528 233.330231,111.535583 
z"/>
<path fill="#EFA199" opacity="1.000000" stroke="none" 
	d="
M128.703186,122.633560 
	C128.398575,121.104294 128.196762,119.146660 128.312225,117.065842 
	C128.688339,118.696831 128.747162,120.451004 128.703186,122.633560 
z"/>
<path fill="#EEA198" opacity="1.000000" stroke="none" 
	d="
M158.139236,184.539856 
	C156.326569,184.605042 154.301544,184.359131 152.143768,183.790085 
	C153.982956,183.720886 155.954926,183.974823 158.139236,184.539856 
z"/>
<path fill="#EDA297" opacity="1.000000" stroke="none" 
	d="
M233.492752,115.230446 
	C234.453812,114.745773 235.370987,114.528046 236.555969,114.185760 
	C237.007248,114.857452 237.190735,115.653694 237.300110,116.716660 
	C236.432755,116.988121 235.639481,116.992874 234.452896,116.999908 
	C233.856003,116.500587 233.652420,115.998993 233.492752,115.230446 
z"/>
<path fill="#EEA198" opacity="1.000000" stroke="none" 
	d="
M167.215179,188.406616 
	C168.530106,188.111298 170.150940,188.026672 171.881424,188.244476 
	C170.501083,188.570343 169.011078,188.593811 167.215179,188.406616 
z"/>
<path fill="#FDE0DA" opacity="1.000000" stroke="none" 
	d="
M110.227203,146.787537 
	C109.818146,145.498566 109.680649,143.982483 109.807999,142.237259 
	C110.214828,143.525558 110.356804,145.042999 110.227203,146.787537 
z"/>
<path fill="#EEA198" opacity="1.000000" stroke="none" 
	d="
M177.169922,185.552475 
	C175.735504,185.744598 174.123535,185.637238 172.243530,185.238983 
	C173.647781,185.049728 175.320084,185.151367 177.169922,185.552475 
z"/>
<path fill="#EEA39A" opacity="1.000000" stroke="none" 
	d="
M165.260529,227.508667 
	C163.701202,227.226990 161.955399,226.648819 160.102509,225.774460 
	C161.688309,226.056244 163.381180,226.634232 165.260529,227.508667 
z"/>
<path fill="#EEA198" opacity="1.000000" stroke="none" 
	d="
M133.030853,212.622650 
	C132.399582,212.036240 131.700302,211.111298 131.264450,210.122681 
	C132.006210,210.800720 132.484528,211.542419 133.030853,212.622650 
z"/>
<path fill="#FDE0DA" opacity="1.000000" stroke="none" 
	d="
M115.914978,160.780838 
	C114.953392,159.995911 113.989906,158.851089 112.991104,157.364075 
	C113.941551,158.154907 114.927322,159.287918 115.914978,160.780838 
z"/>
<path fill="#EEA198" opacity="1.000000" stroke="none" 
	d="
M157.311615,190.504318 
	C158.187897,189.754761 159.371918,189.102737 160.749542,188.658585 
	C159.835205,189.444916 158.727264,190.023376 157.311615,190.504318 
z"/>
<path fill="#EC8D82" opacity="1.000000" stroke="none" 
	d="
M119.625488,116.037186 
	C120.878654,116.682869 121.920082,117.452843 122.970306,118.597305 
	C121.797287,118.376228 120.615479,117.780670 119.120697,117.057236 
	C118.951927,116.627754 119.153938,116.371796 119.625488,116.037186 
z"/>
<path fill="#EEA198" opacity="1.000000" stroke="none" 
	d="
M199.455872,137.198334 
	C199.135880,136.084808 199.108902,134.794266 199.139587,133.018066 
	C199.381134,134.028702 199.565018,135.524994 199.455872,137.198334 
z"/>
<path fill="#EDA297" opacity="1.000000" stroke="none" 
	d="
M223.660126,188.022491 
	C223.306274,189.222778 222.643921,190.527466 221.688049,191.912003 
	C222.046906,190.703537 222.699265,189.415222 223.660126,188.022491 
z"/>
<path fill="#EEA39A" opacity="1.000000" stroke="none" 
	d="
M152.154724,222.564789 
	C150.935715,222.267868 149.562439,221.675903 148.090912,220.797562 
	C149.328583,221.097382 150.664505,221.683563 152.154724,222.564789 
z"/>
<path fill="#EDA297" opacity="1.000000" stroke="none" 
	d="
M239.257629,127.772217 
	C238.731033,126.825523 238.399292,125.622002 238.115479,124.008865 
	C238.593094,124.904633 239.022781,126.210014 239.257629,127.772217 
z"/>
<path fill="#EC9E95" opacity="1.000000" stroke="none" 
	d="
M230.105316,182.701630 
	C229.347137,182.405914 228.692734,181.811401 227.874786,180.908493 
	C227.711273,180.600098 227.749344,180.289429 227.795105,180.140137 
	C228.687531,180.003281 229.534210,180.015732 230.804443,180.057526 
	C230.888382,180.858871 230.548752,181.630844 230.105316,182.701630 
z"/>
<path fill="#FDE0DA" opacity="1.000000" stroke="none" 
	d="
M134.042969,172.356262 
	C134.709335,171.979309 135.432449,171.935089 136.512787,171.842468 
	C136.616974,174.167694 135.724762,174.562637 134.042969,172.356262 
z"/>
<path fill="#EE8D82" opacity="1.000000" stroke="none" 
	d="
M87.458687,88.982368 
	C86.513657,88.786346 85.797539,88.451614 85.016640,87.651978 
	C85.150620,86.997681 85.383614,86.871460 86.038956,86.869446 
	C86.948158,86.950478 87.469238,86.970459 87.990326,86.990448 
	C87.990326,86.990448 88.277885,87.238609 88.412163,87.379410 
	C88.260162,87.961365 87.973885,88.402512 87.458687,88.982368 
z"/>
<path fill="#FDE0DA" opacity="1.000000" stroke="none" 
	d="
M106.755173,153.196121 
	C107.334999,153.774429 107.670212,154.557785 107.992775,155.676636 
	C107.490265,155.141785 107.000404,154.271484 106.755173,153.196121 
z"/>
<path fill="#FDE0DA" opacity="1.000000" stroke="none" 
	d="
M111.769173,152.017975 
	C111.138718,151.473526 110.597427,150.557236 110.105545,149.295135 
	C110.722748,149.848267 111.290543,150.747208 111.769173,152.017975 
z"/>
<path fill="#EDA297" opacity="1.000000" stroke="none" 
	d="
M234.744431,121.193192 
	C235.170258,121.801826 235.414764,122.636490 235.458618,123.677109 
	C235.026337,123.061790 234.794724,122.240509 234.744431,121.193192 
z"/>
<path fill="#EFA199" opacity="1.000000" stroke="none" 
	d="
M95.287323,145.757294 
	C95.423248,144.934082 95.858994,144.016510 96.622284,143.038757 
	C96.495598,143.873367 96.041367,144.768158 95.287323,145.757294 
z"/>
<path fill="#EFA199" opacity="1.000000" stroke="none" 
	d="
M109.243530,130.834778 
	C108.821724,130.934753 108.655602,130.909607 108.240036,130.847260 
	C108.710602,130.201294 109.430588,129.592575 110.469955,128.957397 
	C110.359291,129.523865 109.929253,130.116760 109.243530,130.834778 
z"/>
<path fill="#EEA198" opacity="1.000000" stroke="none" 
	d="
M150.293976,194.701416 
	C150.489334,194.141708 150.984802,193.606689 151.786713,193.055344 
	C151.593460,193.601395 151.093765,194.163757 150.293976,194.701416 
z"/>
<path fill="#EDA297" opacity="1.000000" stroke="none" 
	d="
M223.489868,89.289345 
	C224.018005,89.515656 224.477234,90.024323 224.943573,90.823441 
	C224.440781,90.599823 223.930893,90.085762 223.489868,89.289345 
z"/>
<path fill="#EDA297" opacity="1.000000" stroke="none" 
	d="
M238.173859,119.810310 
	C237.699615,119.425377 237.399338,118.850372 237.134491,117.925957 
	C237.562561,118.257774 237.955200,118.939003 238.173859,119.810310 
z"/>
<path fill="#EEA39A" opacity="1.000000" stroke="none" 
	d="
M157.137817,224.603210 
	C156.572189,224.586670 155.869064,224.296631 155.077209,223.725739 
	C155.659103,223.739822 156.329697,224.034760 157.137817,224.603210 
z"/>
<path fill="#EEA39A" opacity="1.000000" stroke="none" 
	d="
M145.807770,223.422485 
	C146.377136,223.441071 147.104355,223.724777 147.921616,224.298904 
	C147.329636,224.288773 146.647629,223.988190 145.807770,223.422485 
z"/>
<path fill="#EEA39A" opacity="1.000000" stroke="none" 
	d="
M135.892059,218.383194 
	C136.464828,218.428375 137.160736,218.754898 137.934479,219.373749 
	C137.346603,219.332230 136.680893,218.998383 135.892059,218.383194 
z"/>
<path fill="#EEA198" opacity="1.000000" stroke="none" 
	d="
M138.301208,202.882492 
	C138.470001,202.312683 138.943253,201.698578 139.736740,201.053986 
	C139.573212,201.628403 139.089462,202.233292 138.301208,202.882492 
z"/>
<path fill="#EEA198" opacity="1.000000" stroke="none" 
	d="
M142.297134,199.736420 
	C142.521469,199.180771 143.048218,198.634460 143.899582,198.092606 
	C143.682632,198.646622 143.141098,199.196182 142.297134,199.736420 
z"/>
<path fill="#FDE0DA" opacity="1.000000" stroke="none" 
	d="
M118.021530,168.302643 
	C118.545181,168.175369 119.102043,168.336746 119.832367,168.739685 
	C119.355469,168.851273 118.705101,168.721298 118.021530,168.302643 
z"/>
<path fill="#EEA198" opacity="1.000000" stroke="none" 
	d="
M153.292633,192.701935 
	C153.502060,192.155731 154.010574,191.616455 154.832367,191.067932 
	C154.627670,191.608734 154.109680,192.158798 153.292633,192.701935 
z"/>
<path fill="#FDE0DA" opacity="1.000000" stroke="none" 
	d="
M101.119781,138.850830 
	C101.259384,138.215530 101.757088,137.589417 102.548660,136.860229 
	C102.387634,137.458115 101.932755,138.159073 101.119781,138.850830 
z"/>
<path fill="#FDE0DA" opacity="1.000000" stroke="none" 
	d="
M105.862656,149.130920 
	C106.339745,149.485764 106.589279,149.993530 106.776825,150.793060 
	C106.354935,150.484497 105.995026,149.884155 105.862656,149.130920 
z"/>
<path fill="#FDE0DA" opacity="1.000000" stroke="none" 
	d="
M108.300705,158.927689 
	C108.928932,159.142334 109.481766,159.718536 110.091583,160.603470 
	C109.507492,160.371201 108.866402,159.830231 108.300705,158.927689 
z"/>
<path fill="#FDE0DA" opacity="1.000000" stroke="none" 
	d="
M111.162773,163.087280 
	C111.790298,163.250153 112.399605,163.768982 113.088676,164.593002 
	C112.493805,164.413223 111.819176,163.928238 111.162773,163.087280 
z"/>
<path fill="#EDA297" opacity="1.000000" stroke="none" 
	d="
M224.362579,193.268768 
	C224.298752,193.077805 224.471771,192.699265 224.937759,192.192459 
	C225.020309,192.403198 224.809875,192.742188 224.362579,193.268768 
z"/>
<path fill="#ED9C93" opacity="1.000000" stroke="none" 
	d="
M138.301620,70.810432 
	C138.308701,70.428688 138.549942,70.391037 138.889130,70.742157 
	C138.962296,70.871796 138.511002,70.895378 138.301620,70.810432 
z"/>
<path fill="#EFA199" opacity="1.000000" stroke="none" 
	d="
M97.225342,142.887421 
	C97.099648,142.661499 97.278740,142.414993 97.725395,142.102448 
	C97.921432,142.347763 97.767159,142.624557 97.225342,142.887421 
z"/>
<path fill="#FDE0DA" opacity="1.000000" stroke="none" 
	d="
M105.769348,142.084167 
	C105.936844,142.160553 105.956009,142.331818 105.930855,142.757797 
	C105.744514,142.838120 105.581711,142.675385 105.473503,142.482086 
	C105.442184,142.426132 105.567505,142.282486 105.769348,142.084167 
z"/>
<path fill="#EC9F95" opacity="1.000000" stroke="none" 
	d="
M120.869446,60.338001 
	C121.064880,60.299221 121.398796,60.517853 121.818939,61.034878 
	C121.606087,61.087315 121.307007,60.841366 120.869446,60.338001 
z"/>
<path fill="#EDA297" opacity="1.000000" stroke="none" 
	d="
M229.952332,93.738258 
	C229.760254,93.746307 229.490082,93.483833 229.165024,92.934219 
	C229.364838,92.920631 229.619553,93.194191 229.952332,93.738258 
z"/>
<path fill="#FAEFEE" opacity="1.000000" stroke="none" 
	d="
M61.417343,131.704651 
	C56.589615,126.052605 50.810047,120.907570 49.919376,112.945526 
	C49.570255,109.824547 50.115391,106.603539 50.253258,103.428085 
	C53.127148,104.700607 56.415169,105.450874 58.799122,107.341248 
	C66.704086,113.609550 69.649139,122.169724 68.751587,132.804352 
	C66.165733,132.909317 63.791538,132.306992 61.417343,131.704651 
z"/>
<path fill="#F9EFEE" opacity="1.000000" stroke="none" 
	d="
M66.121239,137.960342 
	C66.928909,143.668350 62.911125,146.808655 59.428684,150.067261 
	C52.668755,156.392685 44.601257,158.231354 35.534115,156.668564 
	C38.081013,145.636551 48.613811,138.542435 63.923759,137.791092 
	C65.167557,137.858459 65.644402,137.909409 66.121239,137.960342 
z"/>
<path fill="#FAF0EE" opacity="1.000000" stroke="none" 
	d="
M58.014923,133.017548 
	C53.623775,134.853973 49.358650,137.315094 44.783241,138.238098 
	C42.782646,138.641678 39.786198,136.280396 37.893196,134.487198 
	C35.608398,132.322845 34.014969,129.428665 32.122288,126.850372 
	C34.820869,125.456230 37.420567,123.803825 40.239674,122.724480 
	C45.303253,120.785820 49.511162,121.468048 52.152027,127.030037 
	C53.024174,128.866882 55.019974,130.170212 56.895519,132.070175 
	C57.452976,132.716293 57.694939,132.914520 58.014923,133.017548 
z"/>
<path fill="#F19086" opacity="1.000000" stroke="none" 
	d="
M58.285973,133.241608 
	C57.694939,132.914520 57.452976,132.716293 57.212433,132.196655 
	C58.276009,131.938675 59.416191,131.906891 60.986855,131.789886 
	C63.791538,132.306992 66.165733,132.909317 68.782524,133.257263 
	C69.478188,134.393082 69.931252,135.783325 70.384315,137.173553 
	C69.188538,137.466599 67.992767,137.759659 66.459122,138.006531 
	C65.644402,137.909409 65.167557,137.858459 64.353546,137.675385 
	C62.196594,136.184052 60.376808,134.824860 58.285973,133.241608 
z"/>
<path fill="#FAF1EF" opacity="1.000000" stroke="none" 
	d="
M93.106339,80.340981 
	C87.604591,84.284180 89.217377,77.807396 87.045517,76.345139 
	C83.951790,66.233673 84.958427,57.067039 91.096855,48.671959 
	C91.864799,47.621712 92.487907,46.465565 93.178116,45.358486 
	C93.762932,45.500118 94.347740,45.641750 94.932556,45.783386 
	C96.105629,48.356602 97.278694,50.929817 98.684479,54.110416 
	C99.201950,55.563068 99.486702,56.408333 99.771454,57.253601 
	C100.572464,65.703491 97.979134,73.188263 93.106339,80.340981 
z"/>
<path fill="#FAF0EF" opacity="1.000000" stroke="none" 
	d="
M85.650833,86.808411 
	C85.383614,86.871460 85.150620,86.997681 84.798897,87.315025 
	C74.471085,90.866905 64.460999,91.913017 55.133194,85.094711 
	C53.867996,84.169899 52.980438,82.728462 51.918022,81.526230 
	C53.219597,80.381546 54.337734,78.798019 55.853027,78.164635 
	C64.561234,74.524704 73.067467,75.468178 81.671532,79.841003 
	C82.493286,80.221565 82.948326,80.584465 83.892212,81.110306 
	C84.381058,81.273247 84.797752,81.420509 84.797752,81.420509 
	C85.499985,82.443619 86.202217,83.466736 86.769508,84.908447 
	C86.306656,85.820839 85.978745,86.314621 85.650833,86.808411 
z"/>
<path fill="#FAF0EE" opacity="1.000000" stroke="none" 
	d="
M81.502983,61.108826 
	C81.699165,65.738503 81.699165,70.001755 81.699165,74.782188 
	C77.718658,73.915810 73.704659,73.309021 69.893127,72.076241 
	C68.444977,71.607849 66.712677,69.858894 66.406738,68.418198 
	C65.443733,63.883305 65.096092,59.217739 64.422569,53.912098 
	C71.485023,55.150352 77.111725,56.159801 81.502983,61.108826 
z"/>
<path fill="#F4B2A8" opacity="1.000000" stroke="none" 
	d="
M99.837120,56.890888 
	C99.486702,56.408333 99.201950,55.563068 98.909164,54.376160 
	C99.235016,54.865738 99.568901,55.696957 99.837120,56.890888 
z"/>
<path fill="#FAF0EF" opacity="1.000000" stroke="none" 
	d="
M119.349190,52.188854 
	C118.664673,50.981766 118.223129,49.994381 117.563766,48.753670 
	C117.229050,46.225803 117.112167,43.951260 116.999893,41.766460 
	C127.658371,39.335983 142.222290,54.271500 142.040375,66.714050 
	C140.633270,67.113083 139.229630,67.085457 137.405548,67.072464 
	C129.516846,64.173820 123.608299,59.412369 119.349190,52.188854 
z"/>
<path fill="#FAF0EF" opacity="1.000000" stroke="none" 
	d="
M147.411652,67.939507 
	C146.969849,67.805374 146.915253,67.640579 146.714172,67.258263 
	C149.189041,52.505409 161.226166,41.515625 172.448593,43.411701 
	C173.954407,53.696854 162.748337,64.833565 147.411652,67.939507 
z"/>
<path fill="#FAF0EF" opacity="1.000000" stroke="none" 
	d="
M152.875412,41.191101 
	C152.618164,43.598652 152.774323,45.951885 151.785004,47.629665 
	C149.884277,50.853046 147.334259,53.693565 144.792633,57.036060 
	C141.965820,53.149101 138.857574,49.534622 136.632843,45.440094 
	C135.904510,44.099651 136.968964,41.153000 138.096786,39.570259 
	C140.312531,36.460728 143.147446,33.792389 145.726181,30.941502 
	C147.850784,33.794731 149.983261,36.642166 152.090820,39.507931 
	C152.381042,39.902573 152.547592,40.388180 152.875412,41.191101 
z"/>
<path fill="#EE897A" opacity="1.000000" stroke="none" 
	d="
M143.305023,62.334167 
	C143.767441,60.914257 144.373184,59.823032 144.978928,58.731812 
	C145.480957,59.054977 145.982986,59.378147 146.485016,59.701317 
	C145.790405,60.950321 147.593582,64.258446 143.305023,62.334167 
z"/>
<path fill="#EE8C7F" opacity="1.000000" stroke="none" 
	d="
M173.302094,232.162186 
	C176.815613,232.846756 180.645767,233.692673 184.237488,234.754227 
	C180.100922,235.805939 175.997665,237.446609 173.302094,232.162186 
z"/>
<path fill="#EC9C92" opacity="1.000000" stroke="none" 
	d="
M86.038956,86.869446 
	C85.978745,86.314621 86.306656,85.820839 86.903244,85.193542 
	C87.435303,85.518280 87.698692,85.976509 87.976204,86.712601 
	C87.469238,86.970459 86.948158,86.950478 86.038956,86.869446 
z"/>
<path fill="#EC9C92" opacity="1.000000" stroke="none" 
	d="
M84.805016,81.209679 
	C84.797752,81.420509 84.381058,81.273247 84.188766,81.164505 
	C84.268402,81.036797 84.540344,81.017822 84.805016,81.209679 
z"/>
</svg>